<svg height="99" viewBox="0 0 368 99" width="368" xmlns="http://www.w3.org/2000/svg"><path d="m151.292593 44.2860383-7.183347-16.5921085h6.675664l3.557723 9.3752835 3.354807-9.3752835h6.540651l-10.887136 25.2410259h-6.170351zm-95.2065781-7.4502147c.6442747.0643012 1.2743373.1770269 1.8862403.3334139l3.2845373-18.8513851c-.620588-.1309841-1.2498612-.2413282-1.8838716-.3350017zm-9.9254612 3.3404905-14.4622283-12.2855113c-.6703299.7350984-1.306709 1.5027444-1.9075582 2.2989688l14.4282776 12.2632836c.5566343-.8343287 1.2080149-1.5972117 1.9415089-2.2767411zm25.2198776-17.7542944c-.5068925-.318331-1.0201014-.626342-1.5451537-.9160946l-9.4509403 16.5532102c.5408433.2651435 1.0619478.5660099 1.556997.9025993zm7.1407105 6.1499002-14.418803 12.2434376c.354509.3786631.6861209.7787598.9940463 1.1987027l14.4124865-12.2370869c-.3189791-.4096229-.6482223-.8121012-.9877298-1.2050534zm-36.1362269 18.1377205c.2613418-1.1351952.6679612-2.2140276 1.2040672-3.211888l-17.7120254-6.5301509c-.4445179 1.0478725-.8337671 2.1267048-1.1669582 3.2309402zm25.1804 2.8848247c0 7.0826656-5.7100418 12.8229429-12.7536373 12.8229429-6.3085224 0-11.5432537-4.605876-12.5680925-10.6549582l-17.6804433 6.5206249c.3924075 1.3876372.8740343 2.7379638 1.4401433 4.0414537l17.5722746-6.4785512-14.3437955 12.2021578c.9087746 1.2820561 1.9059791 2.4918726 2.9876657 3.6207171l13.4129134-11.3987889-8.7498179 15.4100766c1.3896119.9772205 2.8589686 1.8472722 4.399385 2.5911029l8.2223971-14.4773113-2.8692329 16.4738259c1.7559642.4778934 3.5719344.8017813 5.4352776.9653129l2.6765821-15.3957874 2.6860567 15.4045197c1.9501941-.1635317 3.8498568-.5048841 5.6824075-1.0113558l-2.4910373-14.291552 7.1730821 12.5808208c1.9636164-.9033931 3.8198537-2.0012777 5.5434463-3.2738078l-6.5832866-11.5345359 10.0660015 8.5473055c1.6051597-1.5924487 3.0421448-3.3555736 4.2817418-5.2639717l-8.9953687-7.6335924 11.0118851 4.0581244c1.0201015-2.1243233 1.8080746-4.3836 2.3426015-6.7397254l-9.6664881-3.5587973 10.2720746-.0015877c.1326448-1.1875888.2068627-2.3926422.2068627-3.6151601 0-1.4162156-.1002731-2.8070282-.2771328-4.1732317h-19.1592746c.4674149 1.3344498.7248089 2.7681299.7248089 4.2637297zm-25.5072746 0c0-.712077.0607955-1.4090709.1721224-2.0893942h-18.8189776c-.0426358.661271-.0679015 1.3257175-.0679015 1.9988962 0 .6263419.022897 1.2487147.0584268 1.8671182h18.7810792c-.0797448-.5810929-.1247493-1.1725058-.1247493-1.7766202zm5.3618493-10.4445898c.6884895-.494564 1.4283-.9216515 2.2107462-1.2717361l-9.4525194-16.5778194c-.7524433.4008906-1.4835686.8319473-2.198903 1.2907884zm.8448208-20.8090015c.6861209-.1476547 1.382506-.2699065 2.0852075-.3707245l3.2876955 18.8585297c-.7153343.0650951-1.414088.1889346-2.0915238.3691369zm169.9203266 62.3492079h2.878708v-25.1989522h-2.878708zm53.229244-24.3828818c.360825.3858076.544001.8748148.544001 1.4654338 0 .5890314-.183176 1.0772447-.544001 1.4638462-.360826.3842199-.835347.5787114-1.422774.5787114-.587426 0-1.060368-.1944915-1.421983-.5787114-.360825-.3866015-.540843-.8748148-.540843-1.4638462 0-.590619.180018-1.0796262.540843-1.4654338.361615-.3850138.834557-.5771237 1.421983-.5771237.587427 0 1.061948.1921099 1.422774.5771237zm-77.71089-11.0336212v-9.5348459c0-2.0870127-.778498-3.1317099-2.337075-3.1317099-.858243 0-1.506465.2889588-1.947035.8668764-.44136.5787114-.660066 1.413834-.660066 2.5029863v9.2966931h-6.097712v-25.8792755h6.097712v10.181034c.495839-.7700275 1.172485-1.3662034 2.031518-1.787734.857454-.4199428 1.827813-.6295173 2.912658-.6295173 2.008621 0 3.528509.6247543 4.554927 1.8726752 1.027997 1.2495086 1.541995 3.0991623 1.541995 5.5505489v10.6922687zm16.879048 29.6778134c-.270817.7843167-.660855 1.4487631-1.167748 1.9925454-.508472.54537-1.113269.9716636-1.812812 1.2780869-.699543.3040418-1.489885.4588412-2.371025.4588412-.877982 0-1.669903-.1547994-2.370236-.4588412-.700333-.3064233-1.30434-.7327169-1.812812-1.2780869-.506893-.5437823-.897721-1.2082287-1.167748-1.9925454-.270816-.7835229-.406619-1.6527808-.406619-2.6053921 0-.9534052.135803-1.8218693.406619-2.6045983.270027-.7819351.660855-1.4455877 1.167748-1.9933393.508472-.5421946 1.112479-.9684882 1.812812-1.2749115.700333-.3072172 1.492254-.459635 2.370236-.459635.88114 0 1.671482.1524178 2.371025.459635.699543.3064233 1.30434.7327169 1.812812 1.2749115.506893.5477516.896931 1.2114042 1.167748 1.9933393.270816.782729.407409 1.6511931.407409 2.6045983 0 .9526113-.136593 1.8218692-.407409 2.6053921zm.86377-8.9720114c-.776919-.7946367-1.698327-1.4185971-2.760275-1.8750567-1.061947-.4540781-2.213904-.6795295-3.45508-.6795295-1.240387 0-2.392344.2254514-3.454291.6795295-1.061948.4564596-1.980987 1.08042-2.760275 1.8750567-.779288.7946366-1.388822 1.7353403-1.829392 2.8244927-.439781 1.09074-.660856 2.2719781-.660856 3.5421266 0 1.27253.221075 2.4513866.660856 3.5421266.44057 1.0891523 1.050104 2.0330314 1.829392 2.8268742.779288.7946367 1.698327 1.4193909 2.760275 1.8726752 1.061947.4524904 2.213904.6811171 3.454291.6811171 1.241176 0 2.393133-.2286267 3.45508-.6811171 1.061948-.4532843 1.983356-1.0780385 2.760275-1.8726752.778498-.7938428 1.389612-1.7377219 1.828603-2.8268742.44057-1.09074.660855-2.2695966.660855-3.5421266 0-1.2701485-.220285-2.4513866-.660855-3.5421266-.438991-1.0891524-1.050105-2.0298561-1.828603-2.8244927zm57.123315 14.7099072h2.878707v-16.7873939h-2.878707zm-8.939311-51.6585268c1.027208 1.2495086 1.541206 3.0991623 1.541206 5.5505489v10.6922687h-6.096922v-9.5348459c0-2.0870127-.778498-3.1317099-2.337864-3.1317099-.858243 0-1.505676.2889588-1.947036.8668764-.439781.5787114-.660066 1.413834-.660066 2.5029863v9.2966931h-6.096922v-17.5717105h5.961909l.067901 2.1806862c.450835-.8621133 1.1109-1.5329105 1.980197-2.01001.869297-.4763057 1.879924-.7144585 3.031881-.7144585 2.00941 0 3.527719.6247543 4.555716 1.8726752zm-51.988067 5.8315692c.465047-2.3720023 1.742542-3.5572096 3.82617-3.5572096 1.013785 0 1.837288.3095987 2.46893.9295899.630063.6223728 1.013785 1.4971876 1.151957 2.6276197zm12.479663 1.0812139c0-1.3622342-.198178-2.5831645-.592954-3.661203-.396355-1.0772447-.964833-1.9973085-1.710959-2.7586037-.745338-.7597076-1.649375-1.3439759-2.708165-1.7535988-1.062737-.4072414-2.248644-.6120528-3.556143-.6120528-1.356451 0-2.59131.227039-3.710106.6803233-1.117216.4556658-2.082839 1.0891523-2.895288 1.9076042-.813239.8160705-1.439354 1.7988478-1.879134 2.9467445-.44057 1.1447214-.660856 2.4116945-.660856 3.7953625 0 1.4312986.241603 2.7244685.727968 3.8818913.484785 1.1574228 1.185907 2.1409941 2.100209 2.9451568.913512.8073382 2.019674 1.4257417 3.318488 1.8567984 1.298024.4310566 2.760274.6477757 4.387541.6477757 1.353293 0 2.658423-.1595624 3.911442-.4763057 1.25223-.318331 2.319705-.7732029 3.199266-1.3630281l-1.929666-3.9160266c-.72323.318331-1.508045.5620408-2.354445.7319231-.8464.1690885-1.608317.2540297-2.285753.2540297-2.777645 0-5.230784-.9970666-5.839529-2.9959627h12.274379c.135014-.56601.203705-1.2709424.203705-2.1108281zm14.496969 3.5762619c-.701912.7708213-1.627268 1.1574228-2.778435 1.1574228s-2.077312-.3866015-2.776855-1.1574228c-.701122-.7716152-1.050104-1.7821771-1.050104-3.0316857 0-1.2479209.348982-2.2576889 1.050104-3.0308918.699543-.7716152 1.625688-1.1574228 2.776855-1.1574228s2.076523.3858076 2.778435 1.1574228c.697964.7732029 1.049315 1.7829709 1.049315 3.0308918 0 1.2495086-.351351 2.2600705-1.049315 3.0316857zm4.096986-9.7047283c-.858243-.8406796-1.874397-1.4932183-3.047671-1.9599979-1.176433-.4643981-2.450771-.696994-3.82775-.696994-1.378558 0-2.653685.2325959-3.826959.696994-1.174854.4667796-2.191008 1.1193183-3.048462 1.9599979-.858243.8390918-1.530152 1.8266323-2.014937 2.9618275-.486364 1.1344014-.728757 2.3712084-.728757 3.7112151s.242393 2.5768138.728757 3.7128028c.484785 1.1336075 1.156694 2.1219418 2.014937 2.9626214.857454.8406795 1.873608 1.4916306 3.048462 1.9576163 1.173274.4651919 2.448401.6985817 3.826959.6985817 1.376979 0 2.651317-.2333898 3.82775-.6985817 1.173274-.4659857 2.189428-1.1169368 3.047671-1.9576163.857454-.8406796 1.529363-1.8290139 2.014148-2.9626214.486364-1.135989.730336-2.3727961.730336-3.7128028s-.243972-2.5768137-.730336-3.7112151c-.484785-1.1351952-1.156694-2.1227357-2.014148-2.9618275zm-48.099522 35.466515c1.038261 1.2352194 1.557786 3.0483564 1.557786 5.4314725v9.9770164h-2.878707v-9.4681631c0-1.8155185-.309505-3.1444114-.930882-3.9819156-.621378-.8414733-1.609108-1.2606223-2.9624-1.2606223-1.492254 0-2.649738.4937702-3.47324 1.4805168-.824293.9875404-1.236439 2.3656516-1.236439 4.1383025v9.0918817h-2.878708v-16.7881877h2.709744l.044214 2.9792921c.385302-.9256207.955359-1.6829468 1.716487-2.2648335 1.03984-.7946367 2.302334-1.1915581 3.793799-1.1915581 1.987303 0 3.500874.6176097 4.538346 1.8567983zm48.719321 9.6697993c-.270817.7843167-.661645 1.4487631-1.166959 1.9925454-.51005.54537-1.114058.9716636-1.814391 1.2780869-.699543.3040418-1.489885.4588412-2.370235.4588412-.879562 0-1.669903-.1547994-2.371026-.4588412-.700333-.3064233-1.303551-.7327169-1.812022-1.2780869-.507682-.5437823-.897721-1.2082287-1.167748-1.9925454-.271606-.7835229-.406619-1.6527808-.406619-2.6053921 0-.9534052.135013-1.8218693.406619-2.6045983.270027-.7819351.660066-1.4455877 1.167748-1.9933393.508471-.5421946 1.111689-.9684882 1.812022-1.2749115.701123-.3072172 1.491464-.459635 2.371026-.459635.88035 0 1.670692.1524178 2.370235.459635.700333.3064233 1.304341.7327169 1.814391 1.2749115.505314.5477516.896142 1.2114042 1.166959 1.9933393.270027.782729.407409 1.6511931.407409 2.6045983 0 .9526113-.137382 1.8218692-.407409 2.6053921zm.864559-8.9720114c-.779288-.7946367-1.699906-1.4185971-2.761853-1.8750567-1.061159-.4540781-2.213115-.6795295-3.454291-.6795295-1.240387 0-2.392344.2254514-3.455081.6795295-1.061158.4564596-1.980987 1.08042-2.760275 1.8750567-.778498.7946366-1.388822 1.7353403-1.828603 2.8244927-.43978 1.09074-.660855 2.2719781-.660855 3.5421266 0 1.27253.221075 2.4513866.660855 3.5421266.439781 1.0891523 1.050105 2.0330314 1.828603 2.8268742.779288.7946367 1.699117 1.4193909 2.760275 1.8726752 1.062737.4524904 2.214694.6811171 3.455081.6811171 1.241176 0 2.393132-.2286267 3.454291-.6811171 1.061947-.4532843 1.982565-1.0780385 2.761853-1.8726752.777709-.7938428 1.388823-1.7377219 1.827814-2.8268742.44057-1.09074.660065-2.2695966.660065-3.5421266 0-1.2701485-.219495-2.4513866-.660065-3.5421266-.438991-1.0891524-1.050105-2.0298561-1.827814-2.8244927zm-104.435653-26.6818506c-.656118.7152524-1.501729 1.0724816-2.540779 1.0724816-1.039051 0-1.890978-.3572292-2.55736-1.0724816-.665593-.7144585-.998784-1.651193-.998784-2.8094097s.333191-2.0933635.998784-2.8086158c.666382-.7160463 1.518309-1.0724817 2.55736-1.0724817 1.03905 0 1.884661.3564354 2.540779 1.0724817.652959.7152523.982203 1.6503991.982203 2.8086158s-.329244 2.0949512-.982203 2.8094097zm6.738828-11.5956619h-5.723464l-.067112 2.0441452c-.520315-.8184519-1.214331-1.4519384-2.082839-1.9076042-.870086-.4532843-1.834919-.6803233-2.896867-.6803233-1.151167 0-2.224169.2381528-3.216636.7144585-.994046.4770995-1.857816 1.1359891-2.59131 1.9758748-.734284.8398857-1.303551 1.8337769-1.71096 2.979292-.40583 1.146309-.609534 2.3894669-.609534 3.7286797 0 1.3630281.197388 2.610949.592953 3.7461442.394776 1.135989.942726 2.110828 1.643059 2.9284861.699543.8168642 1.534889 1.4527323 2.506038 1.9060166.97036.4556657 2.043362.6827048 3.218215.6827048 1.12827 0 2.138108-.2230698 3.030302-.6652403.892194-.4421704 1.597264-1.0724816 2.117579-1.8901397l.067112 2.0092161h5.723464zm165.078793 48.4934755c0 1.5662519-.615851 2.803059-1.845974 3.712009-1.231701.9065685-2.885023 1.3614404-4.960756 1.3614404-1.084845 0-2.158636-.1532116-3.219005-.4612227-1.059579-.3040417-1.907558-.6969939-2.5392-1.1732996l1.186697-2.0766928c1.46462.8621133 2.990035 1.2939638 4.571508 1.2939638 1.239597 0 2.202061-.2167191 2.877128-.6485696.677436-.4318505 1.016154-1.0423156 1.016154-1.8369523 0-.36358-.049742-.6834986-.151594-.954199-.102642-.2722881-.30082-.5183794-.592954-.7311292-.293713-.217513-.701122-.4270875-1.219858-.6303112-.518736-.2056053-1.196961-.4318505-2.030729-.6827048-1.830971-.5437824-3.140049-1.2145795-3.930391-2.0084223-.790341-.7954305-1.185117-1.8377461-1.185117-3.1325038 0-1.4527323.559002-2.6172997 1.676219-3.4921145 1.117216-.8724332 2.625261-1.3098406 4.521766-1.3098406.859032 0 1.772544.1301902 2.742904.3905707.971939.2603804 1.783599.5961759 2.438927 1.0065927l-1.118006 2.0766927c-1.399087-.7057262-2.754748-1.0550171-4.063825-1.0550171-2.281017 0-3.419551.6898494-3.419551 2.075899 0 .7041386.258973 1.2661793.777709 1.6861221.518736.419149 1.422773.8224212 2.711322 1.2090226 1.082476.3167433 1.990461.646188 2.724745.9875404.733494.3389709 1.326448.7200155 1.778861 1.1399583.450834.4207367.772182.8962485.964833 1.4305048.19344.5342562.288187 1.1407521.288187 1.822663zm-186.059565-18.04881h-8.806665v22.543548h-3.047672v-22.543548h-8.805876v-2.621269h20.660213zm-13.361592-33.5771692h1.930455c2.934766 0 4.402543 1.1812381 4.402543 3.5421266 0 2.4307467-1.489885 3.6437385-4.470444 3.6437385h-1.862554zm3.3856 12.3275849 4.505185 8.3766293h7.451794l-6.40169-10.2493044c1.241966-.7263662 2.201272-1.6980298 2.879497-2.9102278.677436-1.216961 1.015365-2.5387093 1.015365-3.9684202 0-1.3622342-.231339-2.5879275-.694017-3.6778737-.463467-1.0899461-1.123533-2.0092161-1.980986-2.757016-.858244-.7509753-1.908348-1.3225422-3.150314-1.7202574-1.241966-.3969214-2.653685-.596176-4.233579-.596176h-9.279607v25.8792755h6.502752v-8.3432879h1.862554zm16.255301 29.0141608c.926935 0 1.705433.1651193 2.338654.4945641.631642.3270632 1.139324.7533568 1.523836 1.2749115.383722.5231424.659276 1.1232876.82903 1.8067862.134224.5350501.199756 1.0820078.22818 1.6329347h-10.163116c.161858-1.4281232.608745-2.5942783 1.350134-3.489733.948252-1.1471029 2.245487-1.7194635 3.893282-1.7194635zm5.606611-.1706762c-.666382-.72716-1.462251-1.2939638-2.387606-1.7035867-.926145-.4064475-1.942299-.6120528-3.048461-.6120528-1.219859 0-2.337075.2206883-3.353229.6644464-1.015364.4429643-1.890977 1.0669248-2.624471 1.8726752-.734284.8049566-1.303551 1.7718572-1.710171 2.8951447-.406619 1.1240815-.610323 2.3545378-.610323 3.6929568 0 2.7466961.813238 4.8868963 2.438926 6.4198067 1.625689 1.5337044 3.906705 2.2989688 6.841471 2.2989688 1.196171 0 2.353655-.1357471 3.471661-.4080352 1.118006-.2730819 2.060731-.6485696 2.828965-1.1240814l-1.084844-2.110828c-1.738594.701757-3.432184 1.0550171-5.079979 1.0550171-2.146003 0-3.782745-.5175855-4.911015-1.5495812-.940357-.8597318-1.48199-2.1076526-1.6399-3.7302673h12.883913c.022897-.2262452.039478-.4318505.051321-.6104652.010264-.1841715.016581-.5120286.016581-.9883343 0-1.2503024-.180808-2.3902606-.541633-3.423844-.361615-1.0335833-.875614-1.9123673-1.541206-2.6379396zm150.348906.1706762c2.888971 0 4.526503 1.4527323 4.911804 4.3574031.043426.1825839.071849.3969215.082903.6477758.00079.019846.00079.0468367.002369.0666828h-10.075476c.160279-1.3273052.592953-2.4370974 1.30355-3.318263.93483-1.1709181 2.193377-1.7535987 3.77485-1.7535987zm5.690303-.2214822c-.655329-.7152523-1.451987-1.2717361-2.388396-1.6702452-.937198-.3961276-1.981776-.5945883-3.132154-.5945883-1.174853 0-2.258908.2206883-3.251376.6644464-.994046.4429643-1.852289 1.0669248-2.57394 1.8726752-.724019.8049566-1.288549 1.7583618-1.695169 2.8610095-.40425 1.1002661-.608744 2.2973811-.608744 3.590551 0 2.8157604.797447 4.9940651 2.387606 6.5396771 1.591737 1.5440242 3.833276 2.3156394 6.723037 2.3156394 1.241176 0 2.426294-.1484486 3.556143-.4421704 1.12906-.2953096 2.121527-.7057263 2.97977-1.2264872l-1.016153-2.1783046c-1.805706.8375041-3.600359 1.2590347-5.384747 1.2590347-3.923285 0-6.046391-1.8083739-6.384319-5.4163895h12.785219c.023687-.2262452.040268-.4302628.05369-.611259.008685-.1825838.014212-.5120286.014212-.9867466 0-1.2495085-.179229-2.378353-.540054-3.3897088-.360825-1.0089742-.870876-1.8710874-1.524625-2.5871337zm-136.733078 12.1394442 1.050105 2.146551c-.72323.4064475-1.55305.7263662-2.488669.9534052-.937199.2262452-1.880713.3397647-2.828966.3397647-1.399876 0-2.670265-.2032237-3.810379-.6128466-1.140113-.4088291-2.111263-1.0010358-2.912658-1.7710633-.801396-.7724091-1.417246-1.7035867-1.845973-2.792739-.428727-1.0891524-.642696-2.302938-.642696-3.6437385 0-1.338419.219496-2.5593492.660066-3.6596153.439781-1.1018539 1.054842-2.0489083 1.845973-2.843545.790342-.7946366 1.744121-1.4130402 2.861337-1.8560045 1.118006-.4437581 2.341812-.6644464 3.674577-.6644464 1.783598 0 3.500085.4532843 5.14867 1.3630281l-1.118006 2.110828c-.586638-.2945156-1.218279-.5167916-1.896505-.6652402-.677436-.146861-1.343818-.2198945-1.997567-.2198945-1.920191 0-3.43771.5668038-4.555716 1.7012051-1.118006 1.1359891-1.677009 2.6688996-1.677009 4.5979376 0 1.9981023.570056 3.5595911 1.710959 4.6828787 1.139324 1.1240814 2.714481 1.6853283 4.724681 1.6853283 1.309078 0 2.675793-.2849896 4.097776-.8517934zm18.053112-12.5331902c1.050105 1.2510963 1.575157 3.0547071 1.575157 5.4171833v9.9770164h-2.879497v-9.4681631c0-1.8155185-.315821-3.1444114-.948252-3.9819156-.632432-.8414733-1.625689-1.2606223-2.979771-1.2606223-1.490674 0-2.648947.4937702-3.47324 1.4805168-.823503.9875404-1.23486 2.3656516-1.23486 4.1383025v9.0918817h-2.879497v-25.1989522h2.879497v11.1614299c.405041-.8676702.978256-1.5781595 1.726751-2.1203542 1.016154-.7382738 2.235223-1.1074107 3.657996-1.1074107 1.986513 0 3.504822.6239605 4.555716 1.8710875zm7.237036-19.7150861c-.891405.1579747-1.812023.2389467-2.760275.2389467-4.403333 0-6.603815-2.3045257-6.603815-6.9143709v-6.2650074h-2.945819v-4.9384961h2.945819v-4.5280793h6.095344v4.5280793h5.690303l-1.523047 4.9384961h-4.167256v5.211578c0 1.0653371.170543 1.8091678.508471 2.2291106.339508.4207367.915091.6311051 1.727541.6311051.925355 0 1.829392-.1714701 2.710532-.5112348l.609535 4.7328908c-.633221.2722881-1.395139.4874195-2.287333.6469819zm80.909366 31.3131295c-.507683.5548961-1.11248.9930974-1.812812 1.3090468-.699544.3191248-1.455935.4778934-2.268384.4778934-1.759912 0-3.15584-.5612469-4.183048-1.6853283-1.027207-1.1232876-1.541206-2.6506411-1.541206-4.5820607 0-.9311776.14133-1.787734.4232-2.5688753.28345-.7843167.679805-1.4598769 1.185118-2.0274745.510841-.5683915 1.112479-1.0089742 1.812812-1.3280991.699543-.3175371 1.467778-.4755118 2.303124-.4755118.857454 0 1.642269.1524178 2.353655.459635.711387.3064233 1.316184.73748 1.812812 1.2947576.495839.55569.879561 1.2296625 1.151167 2.0235053.270817.7946367.40583 1.6694514.40583 2.6220628 0 .9097439-.145277 1.7440727-.43978 2.5045741-.293714.7597075-.694017 1.4193909-1.202488 1.9758747zm1.440932-9.9928932c-.534526-.9200639-1.210383-1.6789776-2.033886-2.2688028-1.129849-.8041627-2.427084-1.2074349-3.894072-1.2074349-1.175643 0-2.264436.232596-3.269536.6985817-1.0051.4651919-1.878344 1.1002661-2.622892 1.9060166-.746917.8065443-1.328027 1.7528049-1.744121 2.8435449-.420042 1.0891523-.626115 2.2711843-.626115 3.5405389 0 1.3161914.189493 2.5204509.574004 3.6111909.383723 1.0891524.925356 2.0195361 1.627268 2.7935329.697174.7684398 1.53331 1.3717603 2.504459 1.802817.97036.4310566 2.043362.6477757 3.218215.6477757 1.556997 0 2.922923-.3873953 4.096987-1.1582166.892983-.5874437 1.613845-1.3598528 2.167321-2.3156395v1.9758747c0 2.4275713-.501366 4.2105423-1.506466 5.3449437-1.002731 1.1367829-2.568413 1.7043805-4.68994 1.7043805-2.438927 0-4.346485-.4437582-5.723464-1.3280991l-.746917 2.3497748c.293714.2262452.684542.4310566 1.170117.6104651.483995.1841715 1.016153.3421462 1.590947.479481.575584.1357471 1.185118.2421221 1.828603.3223002.642696.0801781 1.281444.1190764 1.915454.1190764 6.026652 0 9.041163-3.3039737 9.041163-9.9095397v-15.5617006h-2.810806z" fill="#ce1126" fill-rule="evenodd"/></svg>